<svg width="150" height="150" viewBox="0 0 150 150" fill="none" xmlns="http://www.w3.org/2000/svg">
<rect width="150" height="150" rx="40" fill="#307DC0"/>
<path d="M65.8927 38.025C66.3427 35.805 68.3077 34.2 70.5877 34.2H79.5577C81.8377 34.2 83.8027 35.805 84.2527 38.025L86.4277 48.525C88.5427 49.425 90.5227 50.58 92.3227 51.945L102.493 48.57C104.653 47.85 107.023 48.75 108.163 50.73L112.648 58.5C113.788 60.48 113.383 62.97 111.673 64.485L103.678 71.595C103.813 72.705 103.873 73.845 103.873 75C103.873 76.155 103.798 77.295 103.678 78.405L111.688 85.53C113.398 87.045 113.788 89.55 112.663 91.515L108.178 99.285C107.038 101.25 104.668 102.165 102.508 101.445L92.3377 98.07C90.5227 99.435 88.5427 100.575 86.4427 101.49L84.2827 111.975C83.8177 114.21 81.8527 115.8 79.5877 115.8H70.6177C68.3377 115.8 66.3727 114.195 65.9227 111.975L63.7627 101.49C61.6477 100.59 59.6827 99.435 57.8677 98.07L47.6527 101.445C45.4927 102.165 43.1227 101.265 41.9827 99.285L37.4977 91.515C36.3577 89.535 36.7627 87.045 38.4727 85.53L46.4827 78.405C46.3477 77.295 46.2877 76.155 46.2877 75C46.2877 73.845 46.3627 72.705 46.4827 71.595L38.4727 64.47C36.7627 62.955 36.3727 60.45 37.4977 58.485L41.9827 50.715C43.1227 48.735 45.4927 47.835 47.6527 48.555L57.8227 51.93C59.6377 50.565 61.6177 49.425 63.7177 48.51L65.8927 38.025ZM75.0727 87C81.7027 86.97 87.0577 81.585 87.0277 74.955C86.9977 68.325 81.6127 62.97 74.9827 63C68.3527 63.03 62.9977 68.415 63.0277 75.045C63.0577 81.675 68.4427 87.03 75.0727 87Z" fill="white"/>
</svg>
