<svg width="150" height="150" viewBox="0 0 150 150" fill="none" xmlns="http://www.w3.org/2000/svg">
<rect width="150" height="150" rx="40" fill="#4DB35D"/>
<path d="M99.0001 67.8C99.0001 74.685 96.7651 81.045 93.0001 86.205L111.99 105.21C113.865 107.085 113.865 110.13 111.99 112.005C110.115 113.88 107.07 113.88 105.195 112.005L86.2051 93C81.0451 96.765 74.6851 99 67.8001 99C50.5651 99 36.6001 85.035 36.6001 67.8C36.6001 50.565 50.5651 36.6 67.8001 36.6C85.0351 36.6 99.0001 50.565 99.0001 67.8ZM67.8001 89.4C79.7251 89.4 89.4001 79.725 89.4001 67.8C89.4001 55.875 79.7251 46.2 67.8001 46.2C55.8751 46.2 46.2001 55.875 46.2001 67.8C46.2001 79.725 55.8751 89.4 67.8001 89.4Z" fill="white"/>
</svg>
