<svg width="512" height="512" viewBox="0 0 512 512" fill="none" xmlns="http://www.w3.org/2000/svg">
<g clip-path="url(#clip0_11_67)">
<path d="M190.258 77.7395C59.4307 4.99474 20.8161 469 172.529 469C252.004 469 332.09 156.603 190.258 77.7395Z" fill="white" stroke="black" stroke-width="25"/>
<path d="M359.655 76.8382C214.974 10.343 187.813 472.057 346.763 456.162C437.853 447.053 487.983 135.817 359.655 76.8382Z" fill="white" stroke="black" stroke-width="25"/>
<path d="M160.579 206.733L165.193 339.395C166.064 355.29 170.112 361.403 183.534 361.403C214.101 361.403 205.819 349.177 205.819 311.885C205.819 274.592 203.985 240.969 201.539 206.733C200.055 185.948 197.595 182.279 178.031 182.279C158.801 182.279 159.356 196.544 160.579 206.733Z" fill="black" stroke="black" stroke-linecap="round"/>
<path d="M277.681 209.79L280.356 340.006C280.356 348.565 285.274 362.015 298.696 362.015C329.263 362.015 320.981 340.006 320.981 312.496C320.981 284.986 320.475 244.025 318.029 209.79C316.545 189.004 317.671 184.791 298.696 181.668C279.721 178.545 276.458 199.601 277.681 209.79Z" fill="black" stroke="black" stroke-linecap="round"/>
<path d="M12.5794 256.028C23.1873 260.223 61.1515 254.016 79.1216 248.887L74.7063 276.04C63.9068 281.51 37.7169 284.271 21.8064 292.833C13.2813 297.42 -6.04316 248.665 12.5794 256.028Z" fill="black" stroke="black"/>
<path d="M499.542 255.621C488.934 259.816 450.97 253.609 433 248.48L437.415 275.633C448.215 281.103 474.405 283.864 490.315 292.426C498.84 297.013 518.165 248.258 499.542 255.621Z" fill="black" stroke="black"/>
</g>
<defs>
<clipPath id="clip0_11_67">
<rect width="512" height="512" fill="white"/>
</clipPath>
</defs>
</svg>
