<svg width="725" height="788" viewBox="0 0 725 788" fill="none" xmlns="http://www.w3.org/2000/svg">
<path d="M362.5 250.003C472.044 250.003 562 343.148 562 459.503C562 575.858 472.044 669.003 362.5 669.003C252.956 669.003 163 575.858 163 459.503C163 343.148 252.956 250.003 362.5 250.003Z" stroke="black" stroke-width="30"/>
<path d="M312.902 19.6463C234.406 -24.0005 211.237 254.403 302.265 254.403C349.95 254.403 398.001 66.9644 312.902 19.6463Z" fill="white" stroke="black" stroke-width="30"/>
<path d="M428.228 18.9355C341.419 -20.9617 325.123 256.067 420.492 246.53C475.146 241.064 505.225 54.323 428.228 18.9355Z" fill="white" stroke="black" stroke-width="30"/>
<path d="M193.432 126.081C202.786 129.78 236.262 124.307 252.108 119.784L248.215 143.728C238.692 148.551 215.598 150.986 201.568 158.536C194.051 162.581 177.01 119.588 193.432 126.081Z" fill="black" stroke="black" stroke-width="0.881798"/>
<path d="M523.896 136.645C514.985 140.168 483.095 134.954 468 130.645L471.709 153.455C480.781 158.049 502.78 160.369 516.145 167.56C523.306 171.414 539.538 130.459 523.896 136.645Z" fill="black" stroke="black" stroke-width="0.84"/>
<path d="M553 447.503C528.5 734.503 183 672.503 176.5 447.003L172 548.503L242 635.003L369.5 672.503L464.5 639.503L547 553.003L553 447.503Z" fill="black" stroke="black"/>
<path d="M172 467.003C196.5 180.003 542 242.003 548.5 467.503L553 366.003L483 279.503L355.5 242.003L260.5 275.003L178 361.503L172 467.003Z" fill="black" stroke="black"/>
<path d="M676.5 358.503L666.503 358.285L666.466 359.985L666.993 361.602L676.5 358.503ZM708.5 335.503C708.5 329.98 704.023 325.503 698.5 325.503C692.977 325.503 688.5 329.98 688.5 335.503H698.5H708.5ZM720.902 371.685C725.145 368.149 725.718 361.844 722.182 357.601C718.647 353.358 712.341 352.785 708.098 356.32L714.5 364.003L720.902 371.685ZM674.209 318.572C670.381 314.59 664.05 314.466 660.069 318.294C656.088 322.122 655.964 328.453 659.792 332.434L667 325.503L674.209 318.572ZM563.5 474.003L556.246 480.886C576.895 502.646 616.745 513.574 648.818 499.211C665.279 491.839 679.196 477.997 687.182 456.683C695.081 435.601 697.039 407.654 690.846 371.801L680.992 373.503L671.138 375.205C676.949 408.851 674.716 432.953 668.454 449.665C662.278 466.146 652.062 475.844 640.643 480.958C616.955 491.566 586.056 483.244 570.754 467.119L563.5 474.003ZM680.992 373.503L690.642 370.882C689.284 365.883 687.742 360.725 686.008 355.404L676.5 358.503L666.993 361.602C668.629 366.623 670.075 371.463 671.341 376.124L680.992 373.503ZM680.992 373.503L689.418 378.888C693.755 372.102 698.477 364.959 702.002 358.129C705.525 351.303 708.5 343.62 708.5 335.503H698.5H688.5C688.5 338.886 687.214 343.172 684.229 348.957C681.246 354.738 677.214 360.845 672.566 368.117L680.992 373.503ZM680.992 373.503L678.676 383.231C685.629 384.886 692.472 386.287 699.876 384.371C707.004 382.528 713.39 377.945 720.902 371.685L714.5 364.003L708.098 356.32C700.611 362.56 697.243 364.394 694.868 365.009C692.768 365.552 690.357 365.453 683.308 363.774L680.992 373.503ZM676.5 358.503L686.498 358.72C686.633 352.513 690.182 335.184 674.209 318.572L667 325.503L659.792 332.434C668.819 341.821 666.701 349.159 666.503 358.285L676.5 358.503Z" fill="black"/>
<path d="M644.5 364.002C672.5 332.503 694 398.003 651 386.503" stroke="black" stroke-width="20" stroke-linecap="round"/>
<path d="M48.0002 359.003L57.9979 358.785L58.0348 360.485L57.5079 362.102L48.0002 359.003ZM16.0002 336.003C16.0002 330.48 20.4774 326.003 26.0002 326.003C31.5231 326.003 36.0002 330.48 36.0002 336.003H26.0002H16.0002ZM3.5984 372.185C-0.644363 368.649 -1.21761 362.344 2.31804 358.101C5.85367 353.858 12.1593 353.285 16.4021 356.82L10.0002 364.503L3.5984 372.185ZM50.2919 319.072C54.1199 315.09 60.4503 314.966 64.4313 318.794C68.4124 322.622 68.5365 328.953 64.7086 332.934L57.5002 326.003L50.2919 319.072ZM161 474.503L168.254 481.386C147.606 503.146 107.755 514.074 75.6828 499.711C59.2212 492.339 45.3048 478.497 37.3185 457.183C29.4191 436.101 27.4619 408.154 33.6546 372.301L43.5087 374.003L53.3628 375.705C47.5513 409.351 49.7847 433.453 56.0469 450.165C62.2222 466.646 72.4386 476.344 83.8572 481.458C107.545 492.066 138.445 483.744 153.746 467.619L161 474.503ZM43.5087 374.003L33.8584 371.382C35.2161 366.383 36.7582 361.225 38.4926 355.904L48.0002 359.003L57.5079 362.102C55.8711 367.123 54.4251 371.963 53.1591 376.624L43.5087 374.003ZM43.5087 374.003L35.0827 379.388C30.7455 372.602 26.0233 365.459 22.4986 358.629C18.9759 351.803 16.0002 344.12 16.0002 336.003H26.0002H36.0002C36.0002 339.386 37.2861 343.672 40.2714 349.457C43.2546 355.238 47.2866 361.345 51.9348 368.617L43.5087 374.003ZM43.5087 374.003L45.8245 383.731C38.8712 385.386 32.0282 386.787 24.6241 384.871C17.4962 383.028 11.1109 378.445 3.5984 372.185L10.0002 364.503L16.4021 356.82C23.8895 363.06 27.2571 364.894 29.6328 365.509C31.7322 366.052 34.1434 365.953 41.193 364.274L43.5087 374.003ZM48.0002 359.003L38.0026 359.22C37.8677 353.013 34.3186 335.684 50.2919 319.072L57.5002 326.003L64.7086 332.934C55.6819 342.321 57.7995 349.659 57.9979 358.785L48.0002 359.003Z" fill="black"/>
<path d="M80.0002 364.502C52.0002 333.003 30.5002 398.503 73.5002 387.003" stroke="black" stroke-width="20" stroke-linecap="round"/>
<path d="M117 651.503C122.949 638.364 188.16 620.669 222.16 607.003L244.66 629.503L156.5 662.503C232.485 686.893 438.798 738.387 487.5 747.312L491.5 737.003C493.75 732.503 504.5 731.503 512 734.003C518 736.003 519.834 746.003 518.5 748.503C503.5 785.503 506.5 789.503 488 785.503C478.034 783.348 475.746 778.956 476.282 775.197C392.62 762.338 202.451 707.412 136.5 688.503C113.5 681.908 111.341 664.003 117 651.503Z" fill="black"/>
<path d="M222.16 607.003C188.16 620.669 122.949 638.364 117 651.503C111.341 664.003 113.5 681.908 136.5 688.503C208 709.003 425.5 771.836 495 777.503C505.667 770.003 523.4 751.703 495 748.503C466.6 745.303 237.5 688.503 156.5 662.503L244.66 629.503L222.16 607.003ZM491.5 737.003L478.5 770.503C475.334 774.169 473.2 782.303 488 785.503C506.5 789.503 503.5 785.503 518.5 748.503C519.834 746.003 518 736.003 512 734.003C504.5 731.503 493.75 732.503 491.5 737.003Z" stroke="black"/>
<path d="M583.912 651.503C577.964 638.364 512.753 620.669 478.753 607.003L456.253 629.503L544.412 662.503C468.978 686.716 265.097 737.642 214.496 747.111L209.412 737.003C207.162 732.503 196.412 731.503 188.912 734.003C182.912 736.003 181.079 746.003 182.412 748.503L182.934 750.011C194.048 782.155 195.729 787.016 213.5 783.003C221.322 781.236 224.857 778.112 226.033 774.979C310.4 761.73 498.827 707.307 564.412 688.503C587.412 681.908 589.572 664.003 583.912 651.503Z" fill="black"/>
<path d="M478.753 607.003C512.753 620.669 577.964 638.364 583.912 651.503C589.572 664.003 587.412 681.908 564.412 688.503C492.912 709.003 275.412 771.836 205.912 777.503C195.246 770.003 177.512 751.703 205.912 748.503C234.312 745.303 463.412 688.503 544.412 662.503L456.253 629.503L478.753 607.003ZM209.412 737.003L224.5 767.003C227.667 770.669 229 779.503 213.5 783.003C195.455 787.077 194 782.003 182.412 748.503C181.079 746.003 182.912 736.003 188.912 734.003C196.412 731.503 207.162 732.503 209.412 737.003Z" stroke="black"/>
<ellipse cx="364.5" cy="472.003" rx="17.5" ry="18" fill="black"/>
<ellipse cx="356.5" cy="305.503" rx="7.5" ry="8.5" fill="black"/>
<ellipse cx="364.5" cy="611.503" rx="7.5" ry="8.5" fill="black"/>
<ellipse cx="516.5" cy="459.503" rx="7.5" ry="8.5" fill="black"/>
<ellipse cx="206.5" cy="467.503" rx="7.5" ry="8.5" fill="black"/>
<ellipse cx="221.5" cy="387.503" rx="7.5" ry="8.5" fill="black"/>
<ellipse cx="273.5" cy="334.503" rx="7.5" ry="8.5" fill="black"/>
<ellipse cx="435.5" cy="330.503" rx="7.5" ry="8.5" fill="black"/>
<ellipse cx="494.5" cy="380.503" rx="7.5" ry="8.5" fill="black"/>
<ellipse cx="235.5" cy="542.503" rx="7.5" ry="8.5" fill="black"/>
<ellipse cx="294.5" cy="586.503" rx="7.5" ry="8.5" fill="black"/>
<ellipse cx="443.5" cy="586.503" rx="7.5" ry="8.5" fill="black"/>
<ellipse cx="494.5" cy="533.503" rx="7.5" ry="8.5" fill="black"/>
<path d="M253.585 424.624C248.405 422.708 242.653 425.353 240.737 430.533C238.82 435.713 241.466 441.465 246.646 443.381L250.115 434.003L253.585 424.624ZM250.115 434.003L246.646 443.381L350.722 481.884L354.191 472.506L357.661 463.127L253.585 424.624L250.115 434.003Z" fill="black"/>
<path d="M475.721 424.624C480.901 422.708 486.654 425.353 488.57 430.533C490.486 435.713 487.841 441.465 482.661 443.381L479.191 434.003L475.721 424.624ZM479.191 434.003L482.661 443.381L378.585 481.884L375.115 472.506L371.646 463.127L475.721 424.624L479.191 434.003Z" fill="black"/>
<path d="M276.276 138.2C272.905 129.99 311.116 118.7 314.646 132.43M398.93 131.846C396.664 121.195 429.436 120.607 436.645 129.042" stroke="black" stroke-width="18" stroke-linecap="round"/>
</svg>
