<svg width="150" height="150" viewBox="0 0 150 150" fill="none" xmlns="http://www.w3.org/2000/svg">
<rect width="150" height="150" rx="40" fill="#B57FDF"/>
<path d="M84.72 36.12H60.42C57.7318 36.12 55.56 38.2918 55.56 40.98C55.56 43.6682 57.7318 45.84 60.42 45.84V68.8491L42.119 100.864C41.3749 102.186 40.98 103.659 40.98 105.178C40.98 109.992 44.868 113.88 49.6824 113.88H100.318C105.117 113.88 109.02 109.992 109.02 105.178C109.02 103.659 108.625 102.17 107.881 100.864L89.58 68.8491V45.84C92.2682 45.84 94.44 43.6682 94.44 40.98C94.44 38.2918 92.2682 36.12 89.58 36.12H84.72ZM70.14 68.8491V45.84H79.86V68.8491C79.86 70.5349 80.3004 72.2055 81.1357 73.6787L87.4537 84.72H62.5462L68.8642 73.6787C69.6995 72.2055 70.14 70.5501 70.14 68.8491Z" fill="white"/>
</svg>
