<svg width="150" height="150" viewBox="0 0 150 150" fill="none" xmlns="http://www.w3.org/2000/svg">
<rect width="150" height="150" rx="40" fill="#D25649"/>
<path d="M98.9999 113.4H55.7999C47.8499 113.4 41.3999 106.95 41.3999 99V51C41.3999 43.05 47.8499 36.6 55.7999 36.6H101.4C105.375 36.6 108.6 39.825 108.6 43.8V87C108.6 90.135 106.59 92.805 103.8 93.795V103.8C106.455 103.8 108.6 105.945 108.6 108.6C108.6 111.255 106.455 113.4 103.8 113.4H98.9999ZM55.7999 94.2C53.1449 94.2 50.9999 96.345 50.9999 99C50.9999 101.655 53.1449 103.8 55.7999 103.8H94.1999V94.2H55.7999ZM60.5999 59.4C60.5999 61.395 62.2049 63 64.1999 63H90.5999C92.5949 63 94.1999 61.395 94.1999 59.4C94.1999 57.405 92.5949 55.8 90.5999 55.8H64.1999C62.2049 55.8 60.5999 57.405 60.5999 59.4ZM64.1999 70.2C62.2049 70.2 60.5999 71.805 60.5999 73.8C60.5999 75.795 62.2049 77.4 64.1999 77.4H90.5999C92.5949 77.4 94.1999 75.795 94.1999 73.8C94.1999 71.805 92.5949 70.2 90.5999 70.2H64.1999Z" fill="white"/>
</svg>
