<svg width="150" height="150" viewBox="0 0 150 150" fill="none" xmlns="http://www.w3.org/2000/svg">
<rect width="150" height="150" rx="40" fill="#CC9B33"/>
<path d="M42 65.97L73.3801 78.885C74.8501 79.485 76.4101 79.8 78.0001 79.8C79.5901 79.8 81.15 79.485 82.62 78.885L118.98 63.915C120.33 63.36 121.2 62.055 121.2 60.6C121.2 59.145 120.33 57.84 118.98 57.285L82.62 42.315C81.15 41.715 79.5901 41.4 78.0001 41.4C76.4101 41.4 74.8501 41.715 73.3801 42.315L37.02 57.285C35.67 57.84 34.8 59.145 34.8 60.6V105C34.8 106.995 36.405 108.6 38.4 108.6C40.395 108.6 42 106.995 42 105V65.97ZM49.2 76.725V94.2C49.2 102.15 62.1 108.6 78.0001 108.6C93.9001 108.6 106.8 102.15 106.8 94.2V76.71L85.3651 85.545C83.0251 86.505 80.5351 87 78.0001 87C75.4651 87 72.975 86.505 70.635 85.545L49.2 76.71V76.725Z" fill="white"/>
</svg>
